<svg xmlns="http://www.w3.org/2000/svg" viewBox="0 0 500 480" width="100%" height="100%">
  <defs>
    <radialGradient id="bgGlow" cx="50%" cy="50%" r="60%">
      <stop offset="0%" stop-color="#8A8A8A" stop-opacity="0.22" />
      <stop offset="100%" stop-color="#FFFFFF" stop-opacity="0" />
    </radialGradient>
    <linearGradient id="bodyGrad" x1="0%" y1="0%" x2="100%" y2="100%">
      <stop offset="0%" stop-color="#8A8A8A" stop-opacity="0.95" />
      <stop offset="60%" stop-color="#8A8A8A" />
      <stop offset="100%" stop-color="#111827" stop-opacity="0.4" />
    </linearGradient>
    <linearGradient id="screenGrad" x1="0%" y1="0%" x2="100%" y2="100%">
      <stop offset="0%" stop-color="#64748B" /><stop offset="50%" stop-color="#475569" /><stop offset="100%" stop-color="#1E293B" />
    </linearGradient>
    <linearGradient id="glassReflect" x1="0%" y1="0%" x2="100%" y2="100%">
      <stop offset="0%" stop-color="#FFFFFF" stop-opacity="0.25" />
      <stop offset="35%" stop-color="#FFFFFF" stop-opacity="0.05" />
      <stop offset="100%" stop-color="#000000" stop-opacity="0.3" />
    </linearGradient>
    <filter id="softShadow" x="-15%" y="-15%" width="135%" height="135%">
      <feDropShadow dx="3" dy="16" stdDeviation="14" flood-color="#0F172A" flood-opacity="0.25" />
    </filter>
  </defs>

  <!-- Ambient glow backdrop -->
  <rect width="500" height="480" rx="24" fill="#F8FAFC" />
  <circle cx="250" cy="240" r="210" fill="url(#bgGlow)" />

  <!-- Left Device: Back View -->
  <g transform="translate(80, 60)" filter="url(#softShadow)">
    <!-- Outer Frame / Titanium edge -->
    <rect x="0" y="0" width="168" height="348" rx="14" fill="#94A3B8" stroke="#FFFFFF" stroke-opacity="0.45" stroke-width="1.5" />
    <!-- Rear glass body -->
    <rect x="3" y="3" width="162" height="342" rx="12" fill="url(#bodyGrad)" />
    <rect x="3" y="3" width="162" height="342" rx="12" fill="url(#glassReflect)" />

    
      <!-- Galaxy Camera Array (Vertical individual lenses) -->
      <g transform="translate(18, 24)">
        <circle cx="18" cy="18" r="16" fill="#0F172A" stroke="#94A3B8" stroke-width="2.5" />
        <circle cx="18" cy="18" r="10" fill="#1E293B" />
        <circle cx="15" cy="15" r="4" fill="#38BDF8" opacity="0.7" />

        <circle cx="18" cy="62" r="16" fill="#0F172A" stroke="#94A3B8" stroke-width="2.5" />
        <circle cx="18" cy="62" r="10" fill="#1E293B" />
        <circle cx="15" cy="59" r="4" fill="#38BDF8" opacity="0.7" />

        <circle cx="18" cy="106" r="16" fill="#0F172A" stroke="#94A3B8" stroke-width="2.5" />
        <circle cx="18" cy="106" r="10" fill="#1E293B" />
        <circle cx="15" cy="103" r="4" fill="#38BDF8" opacity="0.7" />

        <!-- Flash & Sensor -->
        <circle cx="52" cy="38" r="8" fill="#FEF08A" stroke="#E2E8F0" stroke-width="1.5" opacity="0.9" />
        <circle cx="52" cy="74" r="6" fill="#0F172A" stroke="#94A3B8" stroke-width="1.5" />
      </g>
    

    <!-- Brand Accent dot -->
    <circle cx="84" cy="195" r="12" fill="#FFFFFF" fill-opacity="0.2" />
  </g>

  <!-- Right Device: Front Screen View -->
  <g transform="translate(235, 75)" filter="url(#softShadow)">
    <!-- Frame -->
    <rect x="0" y="0" width="168" height="348" rx="14" fill="#94A3B8" stroke="#FFFFFF" stroke-opacity="0.5" stroke-width="1.5" />
    <!-- Black bezel -->
    <rect x="3" y="3" width="162" height="342" rx="12" fill="#090D16" />
    <!-- Screen wallpaper -->
    <rect x="7" y="7" width="154" height="334" rx="10" fill="url(#screenGrad)" />

    
      <!-- Galaxy Punch hole camera -->
      <circle cx="84" cy="20" r="4" fill="#000000" stroke="#1E293B" stroke-width="1" />
    

    <!-- Sleek Lockscreen UI Overlay Elements -->
    <text x="84" y="65" font-family="system-ui, -apple-system, sans-serif" font-size="24" font-weight="600" fill="#FFFFFF" fill-opacity="0.95" text-anchor="middle">09:41</text>
    <text x="84" y="84" font-family="system-ui, -apple-system, sans-serif" font-size="10" font-weight="500" fill="#FFFFFF" fill-opacity="0.8" text-anchor="middle">Wednesday, Sept 9</text>

    <!-- Bottom Home Bar -->
    <rect x="54" y="328" width="60" height="4" rx="2" fill="#FFFFFF" fill-opacity="0.75" />
  </g>
</svg>